<svg xmlns="http://www.w3.org/2000/svg" viewBox="0 0 64 64" role="img" aria-label="StockUp">
  <rect width="64" height="64" rx="18" fill="#111111"/>
  <path d="M18 44V38H34.5C37.1 38 38.4 36.9 38.4 34.8C38.4 32.8 37.1 31.7 34.5 31.7H28.8C21.7 31.7 17 27.7 17 21.5C17 14.9 22.3 11 30.8 11H47V17H31.1C28.3 17 26.9 18.1 26.9 20.1C26.9 22 28.3 23.1 31.1 23.1H36.5C43.6 23.1 48.4 27 48.4 33.3C48.4 40 43.5 44 34.9 44H18Z" fill="#f8f8f4"/>
  <path d="M40.5 21.5H47V44.5C47 50.3 43.5 53 37.5 53C31.6 53 28 50.2 28 44.5V27.7L34.5 21.5V43.8C34.5 46.8 35.8 48.3 37.9 48.3C40.1 48.3 40.5 47 40.5 44.4V21.5Z" fill="#d9f07c"/>
</svg>
